<svg width="1280" height="827" viewBox="0 0 1280 827" fill="none" xmlns="http://www.w3.org/2000/svg">
<g clip-path="url(#clip0_1_478)">
<rect x="-579.19" y="-36" width="2438.36" height="899" fill="#1F2A30"/>
<g opacity="0.3">
<g opacity="0.1">
<path d="M224.921 530.251C-88.037 482.715 -360.047 516.386 -520.913 561.941C-591.109 604.855 -654.871 677.215 -348.348 623.341C34.8063 555.999 186.898 736.238 499.856 760.006C812.814 783.774 871.31 668.896 827.438 561.941C783.565 454.986 856.686 379.721 1108.22 385.663C1359.76 391.605 1552.8 464.889 1544.02 662.954C1537 821.406 1545.97 856.398 1649.32 863C1793.61 748.782 2007.32 487.864 1707.81 357.934C1333.44 195.52 938.582 163.83 827.438 357.934C716.294 552.038 537.879 577.786 224.921 530.251Z" fill="#614AD0"/>
<path d="M224.921 530.251C-88.037 482.715 -360.047 516.386 -520.913 561.941C-591.109 604.855 -654.871 677.215 -348.348 623.341C34.8063 555.999 186.898 736.238 499.856 760.006C812.814 783.774 871.31 668.896 827.438 561.941C783.565 454.986 856.686 379.721 1108.22 385.663C1359.76 391.605 1552.8 464.889 1544.02 662.954C1537 821.406 1545.97 856.398 1649.32 863C1793.61 748.782 2007.32 487.864 1707.81 357.934C1333.44 195.52 938.582 163.83 827.438 357.934C716.294 552.038 537.879 577.786 224.921 530.251Z" fill="#0FCDFF"/>
</g>
<g opacity="0.1">
<path d="M1434.34 561.941C1403.63 511.434 1163.8 455.976 1097.99 463.899C1071.18 463.899 1000 485.488 929.808 571.844C842.063 679.789 885.935 758.025 960.519 766.938C1035.1 775.851 1086.29 786.745 1193.04 809.522C1299.8 832.3 1340.75 837.251 1419.72 758.025C1498.69 678.799 1465.05 612.448 1434.34 561.941Z" fill="#614AD0"/>
<path d="M1434.34 561.941C1403.63 511.434 1163.8 455.976 1097.99 463.899C1071.18 463.899 1000 485.488 929.808 571.844C842.063 679.789 885.935 758.025 960.519 766.938C1035.1 775.851 1086.29 786.745 1193.04 809.522C1299.8 832.3 1340.75 837.251 1419.72 758.025C1498.69 678.799 1465.05 612.448 1434.34 561.941Z" fill="#0FCDFF"/>
</g>
<g opacity="0.1">
<path d="M506.984 256.552C515.172 195.574 319.355 56.1854 247.892 40.9316C221.251 31.5098 133.988 27.9514 -1.93915 89.092C-171.848 165.518 -188.207 258.675 -120.926 293.741C-53.6463 328.807 -11.1341 357.618 77.4906 417.767C166.115 477.916 203.009 497.226 342.191 446.254C481.372 395.282 498.796 317.531 506.984 256.552Z" fill="#614AD0"/>
<path d="M506.984 256.552C515.172 195.574 319.355 56.1854 247.892 40.9316C221.251 31.5098 133.988 27.9514 -1.93915 89.092C-171.848 165.518 -188.207 258.675 -120.926 293.741C-53.6463 328.807 -11.1341 357.618 77.4906 417.767C166.115 477.916 203.009 497.226 342.191 446.254C481.372 395.282 498.796 317.531 506.984 256.552Z" fill="#0FCDFF"/>
</g>
<g opacity="0.1">
<path d="M1232.53 502.521C1144.78 481.724 1080.44 510.444 1023.4 566.892C989.766 603.534 948.818 668.896 1023.4 698.606C1097.99 728.315 1121.38 700.586 1232.53 752.083C1343.67 803.58 1413.87 774.861 1419.72 676.818C1425.57 578.776 1320.27 523.318 1232.53 502.521Z" fill="#614AD0"/>
<path d="M1232.53 502.521C1144.78 481.724 1080.44 510.444 1023.4 566.892C989.766 603.534 948.818 668.896 1023.4 698.606C1097.99 728.315 1121.38 700.586 1232.53 752.083C1343.67 803.58 1413.87 774.861 1419.72 676.818C1425.57 578.776 1320.27 523.318 1232.53 502.521Z" fill="#0FCDFF"/>
</g>
<g opacity="0.1">
<path d="M351.985 126.588C280.733 75.0883 194.787 81.0133 94.8567 117.061C33.3552 141.651 -57.4205 192.208 -6.07717 247.939C45.2661 303.67 89.7656 284.34 160.742 374.567C231.718 464.795 323.477 460.926 404.421 365.561C485.364 270.196 423.236 178.088 351.985 126.588Z" fill="#614AD0"/>
<path d="M351.985 126.588C280.733 75.0883 194.787 81.0133 94.8567 117.061C33.3552 141.651 -57.4205 192.208 -6.07717 247.939C45.2661 303.67 89.7656 284.34 160.742 374.567C231.718 464.795 323.477 460.926 404.421 365.561C485.364 270.196 423.236 178.088 351.985 126.588Z" fill="#0FCDFF"/>
</g>
<g opacity="0.1">
<path d="M1349.52 617.399C1304.19 555.999 1220.83 512.424 1163.79 535.202C1127.23 551.047 1122.85 591.651 1163.79 617.399C1204.74 643.147 1163.79 704.548 1285.18 731.287C1406.56 758.025 1394.86 678.799 1349.52 617.399Z" fill="#614AD0"/>
<path d="M1349.52 617.399C1304.19 555.999 1220.83 512.424 1163.79 535.202C1127.23 551.047 1122.85 591.651 1163.79 617.399C1204.74 643.147 1163.79 704.548 1285.18 731.287C1406.56 758.025 1394.86 678.799 1349.52 617.399Z" fill="#0FCDFF"/>
</g>
<g opacity="0.1">
<path d="M380.202 281.851C382.207 204.909 332.769 132.318 258.642 134.908C210.171 137.805 174.696 176.609 195.653 216.584C216.61 256.558 128.87 303.18 228.99 372.404C329.111 441.628 378.198 358.793 380.202 281.851Z" fill="#614AD0"/>
<path d="M380.202 281.851C382.207 204.909 332.769 132.318 258.642 134.908C210.171 137.805 174.696 176.609 195.653 216.584C216.61 256.558 128.87 303.18 228.99 372.404C329.111 441.628 378.198 358.793 380.202 281.851Z" fill="#0FCDFF"/>
</g>
</g>
<path d="M940.703 676.938C957.634 676.938 971.359 663.387 971.359 646.671C971.359 629.955 957.634 616.404 940.703 616.404C923.773 616.404 910.048 629.955 910.048 646.671C910.048 663.387 923.773 676.938 940.703 676.938Z" fill="#715BE2"/>
<path opacity="0.1" d="M918.931 626.645C918.931 626.205 918.947 625.781 918.947 625.342C913.438 630.81 910.048 638.355 910.048 646.671C910.048 663.395 923.78 676.938 940.703 676.938C948.053 676.938 954.788 674.393 960.066 670.137C937.098 668.607 918.931 649.731 918.931 626.645Z" fill="black"/>
<path d="M956.92 620.978C957.779 621.508 958.623 622.084 959.436 622.705C965.788 618.524 970.483 616.736 972.079 618.297C975.316 621.493 964.484 637.369 947.883 653.76C931.281 670.151 915.201 680.846 911.964 677.649C910.368 676.074 912.194 671.438 916.429 665.167C915.8 664.364 915.217 663.531 914.68 662.682C903.541 676.316 897.634 687.057 900.472 689.859C904.722 694.056 926.97 678.907 950.169 656.017C973.368 633.127 988.695 611.146 984.445 606.95C981.607 604.148 970.744 609.98 956.92 620.978Z" fill="#31C1F2"/>
<path d="M1147.65 228.391C1218.54 228.391 1276 170.921 1276 100.028C1276 29.1345 1218.54 -28.3359 1147.65 -28.3359C1076.77 -28.3359 1019.31 29.1345 1019.31 100.028C1019.31 170.921 1076.77 228.391 1147.65 228.391Z" fill="#ECECEC"/>
<path d="M1109.42 56.875C1123.65 56.875 1135.18 45.3402 1135.18 31.1112C1135.18 16.8823 1123.65 5.3475 1109.42 5.3475C1095.2 5.3475 1083.66 16.8823 1083.66 31.1112C1083.66 45.3402 1095.2 56.875 1109.42 56.875Z" fill="#DCDBDB"/>
<path d="M1075.74 100.119C1081.92 100.119 1086.94 95.1052 1086.94 88.9209C1086.94 82.7366 1081.92 77.7232 1075.74 77.7232C1069.56 77.7232 1064.55 82.7366 1064.55 88.9209C1064.55 95.1052 1069.56 100.119 1075.74 100.119Z" fill="#DCDBDB"/>
<path d="M1182.79 202.901C1190.03 202.901 1195.89 197.031 1195.89 189.791C1195.89 182.551 1190.03 176.682 1182.79 176.682C1175.55 176.682 1169.68 182.551 1169.68 189.791C1169.68 197.031 1175.55 202.901 1182.79 202.901Z" fill="#DCDBDB"/>
<path d="M1124.71 131.435C1127.73 131.435 1130.17 128.99 1130.17 125.973C1130.17 122.956 1127.73 120.511 1124.71 120.511C1121.69 120.511 1119.25 122.956 1119.25 125.973C1119.25 128.99 1121.69 131.435 1124.71 131.435Z" fill="#DCDBDB"/>
<path d="M1262.62 116.506C1265.13 116.506 1267.17 114.468 1267.17 111.954C1267.17 109.44 1265.13 107.402 1262.62 107.402C1260.11 107.402 1258.07 109.44 1258.07 111.954C1258.07 114.468 1260.11 116.506 1262.62 116.506Z" fill="#DCDBDB"/>
<path d="M1201.99 61.7912C1208.78 61.7912 1214.28 56.2887 1214.28 49.5011C1214.28 42.7134 1208.78 37.211 1201.99 37.211C1195.21 37.211 1189.71 42.7134 1189.71 49.5011C1189.71 56.2887 1195.21 61.7912 1201.99 61.7912Z" fill="#DCDBDB"/>
<path d="M1159.94 61.7915C1163.36 61.7915 1166.13 59.0199 1166.13 55.6009C1166.13 52.182 1163.36 49.4103 1159.94 49.4103C1156.53 49.4103 1153.75 52.182 1153.75 55.6009C1153.75 59.0199 1156.53 61.7915 1159.94 61.7915Z" fill="#DCDBDB"/>
<path d="M1184.7 120.51C1192.99 120.51 1199.72 113.785 1199.72 105.489C1199.72 97.1932 1192.99 90.4679 1184.7 90.4679C1176.4 90.4679 1169.68 97.1932 1169.68 105.489C1169.68 113.785 1176.4 120.51 1184.7 120.51Z" fill="#DCDBDB"/>
<path d="M1059.36 22.0083C1059.36 16.7281 1059.63 11.4479 1060.09 6.2587C1034.96 29.6555 1019.31 62.9754 1019.31 100.028C1019.31 170.946 1076.74 228.391 1147.65 228.391C1179.06 228.391 1207.82 217.103 1230.12 198.44C1135.27 195.345 1059.36 117.507 1059.36 22.0083Z" fill="#DCDBDB"/>
<path d="M227.722 289.725C256.5 289.725 279.83 266.392 279.83 237.609C279.83 208.826 256.5 185.493 227.722 185.493C198.943 185.493 175.614 208.826 175.614 237.609C175.614 266.392 198.943 289.725 227.722 289.725Z" fill="#EF7962"/>
<mask id="mask0_1_478" style="mask-type:alpha" maskUnits="userSpaceOnUse" x="175" y="185" width="105" height="105">
<path d="M227.722 289.725C256.5 289.725 279.83 266.392 279.83 237.609C279.83 208.826 256.5 185.493 227.722 185.493C198.943 185.493 175.614 208.826 175.614 237.609C175.614 266.392 198.943 289.725 227.722 289.725Z" fill="#EF7962"/>
</mask>
<g mask="url(#mask0_1_478)">
<path d="M212.015 250.443C183.68 255.273 183.944 263.858 181.031 277.273C181.914 281.834 184.898 287.952 189.77 275.932C195.861 260.907 212.015 257.687 227.11 256.883C242.205 256.078 256.24 265.2 267.892 244.809C279.544 224.418 256.24 205.101 256.24 197.857C256.24 192.061 269.481 190.97 276.102 191.149C275.572 189.539 270.858 187.286 256.24 191.149C237.968 195.979 250.944 210.735 253.062 227.906C255.181 245.077 240.351 245.614 212.015 250.443Z" fill="#FFA25E"/>
<path opacity="0.5" d="M170.306 192.942C144.438 184.993 141.114 192.339 133.117 202.405C131.976 206.622 131.962 213.041 141.034 204.981C152.373 194.907 167.313 199.045 180.363 204.769C193.412 210.493 201.468 224.131 219.71 211.894C237.951 199.657 226.3 173.498 229.293 167.395C231.687 162.513 243.294 167.209 248.797 170.168C249.016 168.587 245.976 164.689 232.064 161.744C214.675 158.063 219.51 175.999 214.2 191.364C208.89 206.729 196.174 200.891 170.306 192.942Z" fill="#FFA25E"/>
<path opacity="0.5" d="M251.671 277.246C225.804 269.297 222.479 276.642 214.482 286.709C213.341 290.926 213.327 297.345 222.399 289.285C233.738 279.21 248.678 283.349 261.728 289.072C274.777 294.796 282.833 308.434 301.075 296.197C319.316 283.96 307.665 257.802 310.658 251.699C313.052 246.816 324.659 251.513 330.162 254.471C330.381 252.89 327.341 248.992 313.429 246.048C296.04 242.367 300.875 260.302 295.565 275.667C290.255 291.032 277.539 285.194 251.671 277.246Z" fill="#FFBA87"/>
<path d="M198.774 238.641C183.15 235.422 161.699 248.837 153.49 262.252C156.933 269.585 166.148 279.852 175.47 262.252C187.122 240.251 214.83 246.02 221.549 245.349C237.703 243.735 242.47 239.577 246.309 232.333C251.123 223.252 239.659 205.669 241.94 195.576C232.936 200.137 240.086 217.308 234.79 221.064C229.493 224.82 233.73 227.373 232.142 234.617C230.553 241.861 214.399 241.861 198.774 238.641Z" fill="#DE6850"/>
</g>
<path d="M220.075 223.904C217.005 225.226 216.697 227.404 213.627 227.637C208.714 228.337 212.399 233.392 218.002 233.548C223.606 233.703 220.689 229.815 223.069 227.637C225.448 225.459 223.146 222.582 220.075 223.904Z" fill="#FFA25E"/>
<path opacity="0.1" d="M190.714 203.125C190.714 202.369 190.74 201.638 190.74 200.882C181.377 210.298 175.614 223.288 175.614 237.608C175.614 266.405 198.955 289.724 227.722 289.724C240.214 289.724 251.663 285.342 260.635 278.013C221.593 275.378 190.714 242.877 190.714 203.125Z" fill="black"/>
<g opacity="0.5">
<ellipse cx="176.874" cy="354.759" rx="1.15302" ry="1.15317" fill="#0FCDFF"/>
<ellipse rx="1.15319" ry="1.15302" transform="matrix(0.043387 0.999058 -0.999058 0.0434002 810.022 203.845)" fill="#0FCDFF"/>
<ellipse rx="1.15312" ry="1.15306" transform="matrix(0.499964 0.866046 -0.866004 0.500036 872.191 509.798)" fill="#0FCDFF"/>
<ellipse cx="355.015" cy="244.63" rx="0.576508" ry="0.576599" fill="#0FCDFF"/>
<ellipse rx="0.57655" ry="0.576528" transform="matrix(0.499971 0.866042 -0.866009 0.500029 1056.62 609.031)" fill="#0FCDFF"/>
<ellipse cx="190.71" cy="301.712" rx="0.576477" ry="0.576599" fill="#0FCDFF"/>
<ellipse rx="0.576584" ry="0.576539" transform="matrix(0.499942 0.866059 -0.865992 0.500058 925.042 495.259)" fill="#0FCDFF"/>
<ellipse cx="263.35" cy="224.449" rx="1.15302" ry="1.15318" fill="white"/>
<ellipse rx="1.15315" ry="1.15307" transform="matrix(0.499949 0.866055 -0.865996 0.500051 772.22 519.545)" fill="#0FCDFF"/>
<ellipse cx="176.874" cy="504.674" rx="1.15302" ry="1.15314" fill="#0FCDFF"/>
<ellipse cx="350.115" cy="504.672" rx="1.15305" ry="1.1532" fill="white"/>
<ellipse rx="1.15311" ry="1.15305" transform="matrix(0.597533 0.801844 -0.801736 0.597679 582.603 378.957)" fill="#0FCDFF"/>
<ellipse cx="427.79" cy="379.195" rx="1.15305" ry="1.15318" fill="#0FCDFF"/>
<ellipse cx="899.892" cy="412.418" rx="1.15302" ry="1.15318" fill="#0FCDFF"/>
<ellipse cx="712.451" cy="394.544" rx="0.576538" ry="0.576569" fill="#0FCDFF"/>
<ellipse cx="1026.15" cy="348.416" rx="0.576416" ry="0.576584" fill="#0FCDFF"/>
<ellipse cx="980.026" cy="429.14" rx="0.576416" ry="0.576584" fill="#0FCDFF"/>
<ellipse cx="956.966" cy="441.248" rx="1.15302" ry="1.15318" fill="#0FCDFF"/>
<ellipse cx="446.238" cy="363.05" rx="2.30609" ry="2.30638" fill="#0FCDFF"/>
<ellipse rx="1.15311" ry="1.15303" transform="matrix(0.499949 0.866055 -0.865996 0.500051 400.396 497.745)" fill="white"/>
<ellipse cx="309.471" cy="573.865" rx="1.15298" ry="1.1532" fill="white"/>
<ellipse cx="367.122" cy="614.227" rx="1.15305" ry="1.1532" fill="#0FCDFF"/>
<ellipse rx="1.15313" ry="1.15307" transform="matrix(0.499956 0.866051 -0.866 0.500044 492.721 734.201)" fill="#0FCDFF"/>
<ellipse cx="307.079" cy="448.506" rx="1.15295" ry="1.15317" fill="#0FCDFF"/>
<ellipse rx="1.15313" ry="1.15308" transform="matrix(0.597548 0.801833 -0.801747 0.597664 616.138 346.768)" fill="#0FCDFF"/>
<ellipse rx="1.15313" ry="1.15307" transform="matrix(0.499956 0.866051 -0.866 0.500044 837.863 669.437)" fill="#0FCDFF"/>
<ellipse cx="201.087" cy="378.976" rx="2.30609" ry="2.30637" fill="white"/>
<ellipse rx="2.30637" ry="2.30604" transform="matrix(0.0433873 0.999058 -0.999058 0.0434 786.882 229.089)" fill="#0FCDFF"/>
<ellipse cx="239.713" cy="446.438" rx="0.576508" ry="0.576584" fill="#0FCDFF"/>
<ellipse rx="0.576564" ry="0.576539" transform="matrix(0.597548 0.801833 -0.801747 0.597664 595.67 289.393)" fill="#0FCDFF"/>
<ellipse rx="2.30632" ry="2.30615" transform="matrix(0.499945 0.866057 -0.865994 0.500054 863.329 542.879)" fill="#0FCDFF"/>
<ellipse cx="143.436" cy="223.296" rx="2.30603" ry="2.30638" fill="#0FCDFF"/>
<ellipse rx="2.30628" ry="2.30608" transform="matrix(0.499935 0.866063 -0.865988 0.500065 780.373 415.104)" fill="white"/>
<ellipse cx="316.389" cy="275.189" rx="2.30603" ry="2.30637" fill="#0FCDFF"/>
<ellipse cx="277.792" cy="462.257" rx="2.30606" ry="2.30641" fill="#0FCDFF"/>
<ellipse rx="2.30625" ry="2.30615" transform="matrix(0.59755 0.801832 -0.801748 0.597662 579.009 347.118)" fill="white"/>
<ellipse rx="2.30626" ry="2.30617" transform="matrix(0.597551 0.801831 -0.801749 0.59766 357.665 627.343)" fill="#0FCDFF"/>
<ellipse rx="2.30626" ry="2.30607" transform="matrix(0.499938 0.866061 -0.86599 0.500062 1010.85 590.855)" fill="white"/>
<ellipse cx="148.048" cy="395.121" rx="1.15295" ry="1.15317" fill="#0FCDFF"/>
<ellipse rx="1.15318" ry="1.15302" transform="matrix(0.0433876 0.999058 -0.999058 0.0433997 686.055 217.597)" fill="white"/>
<ellipse rx="1.15314" ry="1.15304" transform="matrix(0.499935 0.866063 -0.865988 0.500065 822.829 505.012)" fill="#0FCDFF"/>
<ellipse cx="159.002" cy="371.48" rx="0.576508" ry="0.576614" fill="#0FCDFF"/>
<ellipse rx="0.576611" ry="0.576538" transform="matrix(0.0433881 0.999058 -0.999058 0.0433991 803.497 215.824)" fill="#0FCDFF"/>
<ellipse rx="0.576573" ry="0.576506" transform="matrix(0.499913 0.866076 -0.865975 0.500087 848.777 502.679)" fill="#0FCDFF"/>
</g>
</g>
<defs>
<clipPath id="clip0_1_478">
<rect width="2438" height="899" fill="white" transform="translate(-579 -36)"/>
</clipPath>
</defs>
</svg>
