<svg width="110" height="47" viewBox="0 0 110 47" fill="none" xmlns="http://www.w3.org/2000/svg">
<path d="M16.1901 44.1001C15.4061 45.9078 13.642 47 11.4859 47C8.54577 47 6.35048 45.004 6.35048 41.9912C6.35048 39.016 8.54577 37.02 11.4859 37.02C13.7988 37.02 15.4061 38.2251 16.0725 39.6939L14.5044 40.1082C14.0732 39.4303 13.1716 38.4511 11.4075 38.4511C9.32981 38.4511 7.91854 39.8445 7.91854 41.9912C7.91854 44.1754 9.40821 45.5689 11.4075 45.5689C12.9364 45.5689 14.0732 44.8157 14.6612 43.6859L16.1901 44.1001Z" fill="white"/>
<path d="M24.6969 37.0577C27.6762 37.0577 29.9107 39.0537 29.9107 42.0289C29.9107 45.004 27.6762 47 24.6969 47C21.7568 47 19.5223 45.004 19.5223 42.0289C19.5223 39.0914 21.7568 37.0577 24.6969 37.0577ZM24.6969 45.6066C26.7354 45.6066 28.3426 44.2508 28.3426 42.0665C28.3426 39.8446 26.7746 38.4888 24.6969 38.4888C22.6584 38.4888 21.0903 39.8446 21.0903 42.0665C21.0903 44.2508 22.6584 45.6066 24.6969 45.6066Z" fill="white"/>
<path d="M41.4752 43.196C41.4752 41.4637 41.5144 39.769 41.5144 39.769H41.4752C41.4752 39.769 41.044 40.5598 40.2992 41.8779L38.7703 44.5141H37.8687L36.3398 41.9156C35.5558 40.5975 35.1638 39.8066 35.1246 39.769H35.0854C35.0854 39.769 35.1246 41.4637 35.1246 43.196V46.849H33.5565V37.2834H35.2422L38.3391 42.5935H38.3783L41.4752 37.2834H43.0825V46.849H41.5144V43.196H41.4752Z" fill="white"/>
<path d="M55.2744 43.196C55.2744 41.4637 55.3136 39.769 55.3136 39.769H55.2744C55.2744 39.769 54.8432 40.5598 54.0984 41.8779L52.5695 44.5141H51.6679L50.139 41.9156C49.355 40.5975 48.9629 39.8066 48.9237 39.769H48.8845C48.8845 39.769 48.9237 41.4637 48.9237 43.196V46.849H47.3557V37.2834H49.0413L52.1383 42.5935H52.1775L55.2744 37.2834H56.8817V46.849H55.3136V43.196H55.2744Z" fill="white"/>
<path d="M61.1158 37.2834H68.0153V38.6768H62.6838V41.2H66.7608V42.5935H62.6838V45.4556H68.0544V46.849H61.1158V37.2834Z" fill="white"/>
<path d="M75.3456 43.2713C75.1496 43.2713 74.7576 43.2713 74.5616 43.2713H73.5424V46.849H71.9743V37.2834H75.2672C77.6585 37.2834 79.0698 38.4509 79.0698 40.3339C79.0698 41.7649 78.2465 42.6688 76.9137 43.0077L79.305 46.849H77.4233L75.3456 43.2713ZM75.424 42.0662C76.6785 42.0662 77.5017 41.6143 77.5017 40.4092C77.5017 39.2417 76.7177 38.6392 75.3456 38.6392H73.5424V42.0662H75.424Z" fill="white"/>
<path d="M92.006 44.1C91.222 45.9077 89.4579 46.9998 87.3018 46.9998C84.3617 46.9998 82.1664 45.0038 82.1664 41.991C82.1664 39.0159 84.3617 37.0199 87.3018 37.0199C89.6147 37.0199 91.222 38.225 91.8884 39.6938L90.3204 40.108C89.8892 39.4302 88.9875 38.451 87.2235 38.451C85.1458 38.451 83.7345 39.8444 83.7345 41.991C83.7345 44.1753 85.2242 45.5688 87.2235 45.5688C88.7523 45.5688 89.8892 44.8155 90.4772 43.6857L92.006 44.1Z" fill="white"/>
<path d="M95.6911 37.2834H102.591V38.6768H97.2591V41.2H101.336V42.5935H97.2591V45.4556H102.63V46.849H95.6911V37.2834Z" fill="white"/>
<path d="M35.2424 23.9142C30.1069 23.9142 25.9124 19.8846 25.9124 14.9511C25.9124 10.0176 30.1069 5.98801 35.2424 5.98801C40.3778 5.98801 44.5723 10.0176 44.5723 14.9511C44.6116 19.8846 40.417 23.9142 35.2424 23.9142ZM35.2424 8.05931C31.283 8.05931 28.0685 11.1474 28.0685 14.9511C28.0685 18.7548 31.283 21.8429 35.2424 21.8429C39.2017 21.8429 42.4163 18.7548 42.4163 14.9511C42.4163 11.1474 39.2017 8.05931 35.2424 8.05931Z" fill="white"/>
<path d="M56.0584 23.9142C50.923 23.9142 46.7284 19.8846 46.7284 14.9511C46.7284 10.0176 50.923 5.98801 56.0584 5.98801C61.1938 5.98801 65.3884 10.0176 65.3884 14.9511C65.3884 19.8846 61.1938 23.9142 56.0584 23.9142ZM56.0584 8.05931C52.0991 8.05931 48.8845 11.1474 48.8845 14.9511C48.8845 18.7548 52.0991 21.8429 56.0584 21.8429C60.0178 21.8429 63.2323 18.7548 63.2323 14.9511C63.2323 11.1474 60.0178 8.05931 56.0584 8.05931Z" fill="white"/>
<path d="M14.5049 23.9141H7.64465V5.9502H14.5049C19.6404 5.9502 23.8349 9.97983 23.8349 14.9133C23.8741 19.8844 19.6796 23.9141 14.5049 23.9141ZM9.83994 21.8051H14.5049C18.4643 21.8051 21.6788 18.717 21.6788 14.9133C21.6788 11.1096 18.4643 8.0215 14.5049 8.0215H9.83994V21.8051Z" fill="white"/>
<path d="M104.59 23.9141H84.6753L94.5933 5.57367L104.59 23.9141ZM88.2035 21.8052H101.062L94.6325 10.2435L88.2035 21.8052Z" fill="white"/>
<path d="M110 0H0.0786362V2.10896H110V0Z" fill="white"/>
<path d="M109.53 27.7557H0.0786362V29.8646H109.53V27.7557Z" fill="white"/>
<path d="M2.1953 2.10876H0V27.7553H2.1953V2.10876Z" fill="white"/>
<path d="M110 2.10876H107.804V27.7553H110V2.10876Z" fill="white"/>
<path d="M110 0H107.804V2.10896H110V0Z" fill="white"/>
<path d="M110 27.7557H107.804V29.8646H110V27.7557Z" fill="white"/>
<path d="M2.1953 0H0V2.10896H2.1953V0Z" fill="white"/>
<path d="M2.1953 27.7557H0V29.8646H2.1953V27.7557Z" fill="white"/>
<path d="M81.9705 19.7339C80.6768 21.0144 78.8344 21.8429 76.8351 21.8429C72.8757 21.8429 69.6612 18.7548 69.6612 14.9511C69.6612 11.1474 72.8757 8.05931 76.8351 8.05931C78.756 8.05931 80.4808 8.77485 81.7353 9.94232L83.2641 8.47358C81.5785 6.92951 79.3048 5.98801 76.7959 5.98801C71.6605 5.98801 67.4659 10.0176 67.4659 14.9511C67.4659 19.8846 71.6605 23.9142 76.7959 23.9142C79.4616 23.9142 81.8529 22.8597 83.5385 21.1274L81.9705 19.7339Z" fill="white"/>
</svg>
